<?xml version="1.0" encoding="UTF-8" standalone="no"?>
<svg
   width="25"
   height="25"
   viewBox="0 0 25 25"
   fill="none"
   version="1.1"
   id="svg16"
   sodipodi:docname="company.svg"
   inkscape:version="1.2.1 (9c6d41e410, 2022-07-14)"
   xmlns:inkscape="http://www.inkscape.org/namespaces/inkscape"
   xmlns:sodipodi="http://sodipodi.sourceforge.net/DTD/sodipodi-0.dtd"
   xmlns="http://www.w3.org/2000/svg"
   xmlns:svg="http://www.w3.org/2000/svg">
  <defs
     id="defs20" />
  <sodipodi:namedview
     id="namedview18"
     pagecolor="#ffffff"
     bordercolor="#000000"
     borderopacity="0.25"
     inkscape:showpageshadow="2"
     inkscape:pageopacity="0.0"
     inkscape:pagecheckerboard="0"
     inkscape:deskcolor="#d1d1d1"
     showgrid="false"
     inkscape:zoom="16"
     inkscape:cx="16"
     inkscape:cy="10.125"
     inkscape:window-width="1920"
     inkscape:window-height="1009"
     inkscape:window-x="-8"
     inkscape:window-y="-8"
     inkscape:window-maximized="1"
     inkscape:current-layer="svg16" />
  <g
     id="g518"
     transform="matrix(0.71289145,0,0,0.71289145,6.6548706,0.92773)">
    <path
       d="M 15.399,30.5116 V 6.86729 C 15.3989,6.6139 15.3191,6.36696 15.171,6.16138 15.0229,5.9558 14.8139,5.80198 14.5736,5.72168 L 2.50606,1.69918 C 2.32461,1.63837 2.13128,1.62165 1.94208,1.65039 1.75289,1.67914 1.57325,1.75253 1.41805,1.86449 1.26285,1.97644 1.13654,2.12375 1.04958,2.29422 0.962622,2.46469 0.917507,2.65342 0.917972,2.84479 V 30.5116"
       stroke="#a0a3bd"
       stroke-width="1.6"
       stroke-linecap="round"
       stroke-linejoin="round"
       id="path2" />
    <path
       d="m 10.5703,22.8916 v 1.2068"
       stroke="#a0a3bd"
       stroke-width="1.6"
       stroke-linecap="round"
       stroke-linejoin="round"
       id="path4" />
    <path
       d="m 10.5703,16.8579 v 1.2068"
       stroke="#a0a3bd"
       stroke-width="1.6"
       stroke-linecap="round"
       stroke-linejoin="round"
       id="path6" />
    <path
       d="M 10.5703,10.8242 V 12.031"
       stroke="#a0a3bd"
       stroke-width="1.6"
       stroke-linecap="round"
       stroke-linejoin="round"
       id="path8" />
    <path
       d="m 5.74609,22.8916 v 1.2068"
       stroke="#a0a3bd"
       stroke-width="1.6"
       stroke-linecap="round"
       stroke-linejoin="round"
       id="path10" />
    <path
       d="m 5.74609,16.8579 v 1.2068"
       stroke="#a0a3bd"
       stroke-width="1.6"
       stroke-linecap="round"
       stroke-linejoin="round"
       id="path12" />
    <path
       d="M 5.74609,10.8242 V 12.031"
       stroke="#a0a3bd"
       stroke-width="1.6"
       stroke-linecap="round"
       stroke-linejoin="round"
       id="path14" />
    <rect
       style="fill:#a0a3bd;fill-opacity:1;stroke-width:0.983261"
       id="rect178"
       width="14.417371"
       height="1.9300362"
       x="0.90251809"
       y="-31.313"
       transform="scale(1,-1)" />
  </g>
</svg>
