<?xml version="1.0" encoding="UTF-8" standalone="no"?>
<svg
   width="25"
   height="25"
   viewBox="0 0 25 25"
   fill="none"
   version="1.1"
   id="svg191"
   sodipodi:docname="phone.svg"
   inkscape:version="1.2.1 (9c6d41e410, 2022-07-14)"
   xmlns:inkscape="http://www.inkscape.org/namespaces/inkscape"
   xmlns:sodipodi="http://sodipodi.sourceforge.net/DTD/sodipodi-0.dtd"
   xmlns="http://www.w3.org/2000/svg"
   xmlns:svg="http://www.w3.org/2000/svg">
  <defs
     id="defs195" />
  <sodipodi:namedview
     id="namedview193"
     pagecolor="#ffffff"
     bordercolor="#000000"
     borderopacity="0.25"
     inkscape:showpageshadow="2"
     inkscape:pageopacity="0.0"
     inkscape:pagecheckerboard="0"
     inkscape:deskcolor="#d1d1d1"
     showgrid="false"
     inkscape:zoom="14.293103"
     inkscape:cx="8.2557298"
     inkscape:cy="13.572979"
     inkscape:window-width="1920"
     inkscape:window-height="1009"
     inkscape:window-x="-8"
     inkscape:window-y="-8"
     inkscape:window-maximized="1"
     inkscape:current-layer="svg191" />
  <path
     d="M 16.556505,2.3111889 H 8.4318546 c -0.9971322,0 -1.8054701,0.8083333 -1.8054701,1.8054735 V 21.268617 c 0,0.997179 0.8083379,1.805497 1.8054701,1.805497 h 8.1246504 c 0.9971,0 1.805417,-0.808318 1.805417,-1.805497 V 4.1166624 c 0,-0.9971402 -0.808317,-1.8054735 -1.805417,-1.8054735 z"
     stroke="#a0a3bd"
     stroke-width="1.27772"
     stroke-linecap="round"
     stroke-linejoin="round"
     id="path187" />
  <path
     d="m 15.451357,2.3111889 v 1.1828727 c 0,0.3137121 -0.124577,0.6145831 -0.346422,0.8364111 -0.221843,0.2218361 -0.522746,0.3464616 -0.836427,0.3464616 h -3.548626 c -0.31372,0 -0.614583,-0.1246255 -0.8364184,-0.3464616 C 9.6616356,4.1086447 9.5370101,3.8077737 9.5370101,3.4940616 V 2.3111889"
     stroke="#a0a3bd"
     stroke-width="1.27772"
     stroke-linecap="round"
     stroke-linejoin="round"
     id="path189" />
</svg>
